<svg xmlns="http://www.w3.org/2000/svg" enable-background="new 0 0 48 48" viewBox="0 0 48 48" id="Car"><path d="M8.5,22.7c0.8,0.5,8.2,0.7,15.6,0.7c7.3,0,14.6-0.2,15.4-0.7l0.6-0.4l0-0.6c0-0.6-0.5-2-0.8-2.9l0-0.1
		c-0.1-0.4-0.2-0.7-0.4-1.1c-0.4-1.2-0.9-2.4-1.4-3.4c-1-2.1-2.1-3.6-2.8-4.5c-0.3-0.4-0.8-0.7-1.4-0.7l-5.5-0.4
		c-2.5-0.2-5-0.2-7.5,0l-5.5,0.4c-0.5,0-1,0.3-1.4,0.7c-0.7,0.8-1.7,2.3-2.8,4.5c-0.5,1.1-1,2.2-1.4,3.4c-0.1,0.3-0.2,0.7-0.3,1
		l0,0.1C8.5,19.7,8,21.2,8,21.8l0,0l0,0.6L8.5,22.7z M10.7,19.5l0-0.1c0.1-0.3,0.2-0.7,0.3-1c0.4-1.1,0.8-2.2,1.3-3.2
		c1-2,1.9-3.3,2.5-4.1l5.5-0.4c2.4-0.2,4.8-0.2,7.2,0l5.5,0.3c0.6,0.8,1.6,2.1,2.5,4.1c0.5,1,0.9,2.1,1.3,3.2c0.1,0.3,0.2,0.7,0.3,1
		l0,0.1c0.2,0.6,0.4,1.1,0.5,1.5c-4.2,0.5-23.4,0.4-27.6,0C10.3,20.6,10.5,20.1,10.7,19.5z" fill="#000000" class="color000000 svgShape"></path><path d="M44.1,12.6h-3.2c-1.1-2.4-2.3-4.1-3-5.1c-0.8-1.1-2.1-1.8-3.5-1.9l-6-0.4c-2.8-0.2-5.7-0.2-8.5,0l-6,0.4
		c-1.4,0.1-2.7,0.8-3.5,1.9c-0.8,1-1.9,2.7-3,5.1H3.9c-1.9,0-3.4,1.5-3.4,3.4v2.7h4.3c-0.1,0.4-1,2.9-1,4.1c0,0.3-0.1,0.5-0.2,0.7
		l-0.1,0.1c-0.3,0.5-0.5,1.1-0.5,1.7v9.5c0,0.9,0.3,1.7,0.7,2.4v3.5c0,1.3,1,2.3,2.3,2.3h3.6c1.3,0,2.3-1,2.3-2.3v-1.5h0.4
		c0.7,0,1.2-0.6,1.7-1.3c0.1-0.1,0.2-0.3,0.3-0.4h19.3c0.1,0.1,0.2,0.3,0.3,0.4c0.4,0.6,0.9,1.3,1.6,1.3H36v1.5c0,1.3,1,2.3,2.3,2.3
		h3.6c1.3,0,2.3-1,2.3-2.3v-3.5c0.5-0.7,0.7-1.5,0.7-2.4v-9.5c0-0.6-0.2-1.2-0.5-1.7l-0.1-0.1c-0.1-0.2-0.2-0.4-0.2-0.7
		c0-1.3-0.9-3.9-1-4.1h4.3V16C47.5,14.1,46,12.6,44.1,12.6z M2.5,16c0-0.8,0.6-1.4,1.4-1.4h2.3c-0.1,0.1-0.1,0.3-0.1,0.4
		c-0.1,0.3-0.2,0.6-0.3,0.9c-0.1,0.3-0.2,0.6-0.3,0.8h-3V16z M10,40.8c0,0.2-0.1,0.3-0.3,0.3H6.1c-0.2,0-0.3-0.1-0.3-0.3V39
		c0,0,0,0,0.1,0c0.2,0.1,0.5,0.2,0.7,0.2c0,0,0.1,0,0.1,0c0.3,0,0.5,0.1,0.8,0.1H10V40.8z M35.9,37.3c-0.1-0.1-0.2-0.3-0.3-0.4
		c-0.4-0.6-0.9-1.3-1.7-1.3H14.1c-0.7,0-1.2,0.6-1.6,1.3c-0.1,0.1-0.2,0.3-0.3,0.4H12H7.5c-0.2,0-0.4,0-0.6-0.1
		c-0.4-0.1-0.7-0.2-1-0.5c-0.1-0.1-0.3-0.3-0.4-0.4l0,0c-0.3-0.4-0.5-0.9-0.5-1.5v-9.5c0-0.2,0.1-0.4,0.2-0.6l0.1-0.1
		c0.3-0.5,0.5-1.1,0.5-1.7c0-0.7,0.6-2.6,0.9-3.6C6.9,18.8,7,18.4,7.1,18c0.5-1.4,1-2.8,1.6-4c1.2-2.6,2.3-4.3,3.1-5.3
		C12.3,8,13,7.6,13.9,7.5l6-0.4c2.7-0.2,5.5-0.2,8.2,0l6,0.4c0.8,0.1,1.6,0.5,2,1.1c0.8,1,1.9,2.8,3.1,5.3l0,0
		c0.6,1.3,1.1,2.6,1.6,4l0.1,0.2c0.1,0.3,0.2,0.7,0.3,1.1c0.3,1,0.9,2.8,0.9,3.6c0,0.7,0.2,1.2,0.5,1.7l0.1,0.1
		c0.1,0.2,0.2,0.4,0.2,0.6v9.5c0,0.5-0.2,1.1-0.5,1.5c-0.5,0.6-1.2,1-1.9,1H36H35.9z M42.2,40.8c0,0.2-0.1,0.3-0.3,0.3h-3.6
		c-0.2,0-0.3-0.1-0.3-0.3v-1.5h2.4c0.3,0,0.5,0,0.8-0.1c0,0,0.1,0,0.1,0c0.2-0.1,0.5-0.1,0.7-0.2c0,0,0,0,0.1,0V40.8z M45.5,16.7h-3
		c-0.1-0.2-0.2-0.5-0.3-0.7c-0.1-0.4-0.3-0.7-0.4-1.1c0-0.1-0.1-0.2-0.1-0.3h2.3c0.8,0,1.4,0.6,1.4,1.4V16.7z" fill="#000000" class="color000000 svgShape"></path><path d="M13.4 28c-1.9-1.8-4.4-2.3-5.6-1.1-.6.5-.9 1.4-.9 2.2 0 1.1.5 2.2 1.5 3.1 1.1 1 2.9 1.7 4.4 1.7.8 0 1.4-.2 1.9-.6.5-.4.7-1 .7-1.7C15.4 30.5 14.6 29.1 13.4 28zM13.3 31.9c-.4.3-2.3 0-3.6-1.1-.7-.7-.8-1.3-.8-1.6 0-.3.1-.6.3-.8.1-.1.2-.1.4-.1.5 0 1.5.3 2.5 1.2.9.8 1.3 1.7 1.3 2.2C13.4 31.7 13.4 31.8 13.3 31.9zM40.2 26.9c-1.2-1.1-3.6-.6-5.6 1.1-1.2 1.1-2 2.5-2 3.6 0 .7.2 1.3.7 1.7 0 0 0 0 0 0 .5.4 1.1.6 1.9.6 1.5 0 3.3-.7 4.4-1.7 1-.9 1.5-2 1.5-3.1C41.1 28.2 40.8 27.4 40.2 26.9zM38.3 30.7c-1.3 1.2-3.2 1.4-3.6 1.1 0 0-.1-.2-.1-.2 0-.5.4-1.3 1.3-2.2 1.3-1.2 2.7-1.4 2.9-1.1.2.2.3.4.3.8S39 30.1 38.3 30.7zM16.8 29.4c0 2.5 2 4.6 4.6 4.6h5.3c2.5 0 4.6-2 4.6-4.6v-1H16.8V29.4zM29 30.4c-.4.9-1.3 1.6-2.3 1.6h-5.3c-1.1 0-2-.6-2.3-1.6H29z" fill="#000000" class="color000000 svgShape"></path></svg>