<svg xmlns="http://www.w3.org/2000/svg" width="163.839" height="163.839" fill-rule="evenodd" clip-rule="evenodd" image-rendering="optimizeQuality" shape-rendering="geometricPrecision" text-rendering="geometricPrecision" viewBox="0 0 1707 1707" id="carbon-monoxide-detector"><g><path d="M1294 1015c-24,0 -38,-28 -23,-47 50,-63 50,-166 0,-229 -24,-30 22,-66 45,-36 67,84 67,216 0,301 -5,7 -14,11 -22,11zm-441 692c-470,0 -853,-383 -853,-854 0,-470 383,-853 853,-853 471,0 854,383 854,853 0,471 -383,854 -854,854zm0 -1649c-438,0 -795,357 -795,795 0,439 357,796 795,796 439,0 796,-357 796,-796 0,-438 -357,-795 -796,-795zm0 1513c-395,0 -717,-322 -717,-718 0,-395 322,-717 717,-717 396,0 718,322 718,717 0,396 -322,718 -718,718zm0 -1377c-363,0 -659,296 -659,659 0,364 296,660 659,660 364,0 660,-296 660,-660 0,-363 -296,-659 -660,-659zm0 837c-98,0 -178,-80 -178,-178 0,-98 80,-178 178,-178 98,0 178,80 178,178 0,98 -80,178 -178,178zm0 -298c-66,0 -120,54 -120,120 0,66 54,120 120,120 66,0 120,-54 120,-120 0,-66 -54,-120 -120,-120zm0 -130c-16,0 -29,-13 -29,-29l0 -61c0,-38 58,-38 58,0l0 61c0,16 -13,29 -29,29zm0 -174c-16,0 -29,-13 -29,-29l0 -62c0,-38 58,-38 58,0l0 62c0,16 -13,29 -29,29zm235 927l-469 0c-16,0 -29,-13 -29,-29l0 -169c0,-16 13,-29 29,-29l469 0c16,0 29,13 29,29l0 169c0,16 -13,29 -29,29zm-440 -58l411 0 0 -111 -411 0 0 111zm-97 -310c-46,0 -125,-156 -21,-260 27,-27 68,14 41,41 -46,46 -46,122 0,169 19,18 5,50 -20,50zm-138 27c-8,0 -17,-4 -23,-11 -67,-85 -67,-217 0,-301 24,-30 69,6 46,36 -50,63 -50,166 0,229 15,19 1,47 -23,47zm743 -27c-26,0 -39,-32 -21,-50 47,-47 47,-123 0,-169 -27,-27 14,-68 41,-41 105,104 26,260 -20,260z"></path></g></svg>