<svg xmlns="http://www.w3.org/2000/svg" enable-background="new 0 0 64 64" viewBox="0 0 64 64" id="doorman"><path d="M51.2,38.7L41,35.3v-3.1c1.3-1.6,2.2-3.4,2.7-5.4l3.1-2.3c0.8-0.6,1.2-1.5,1.2-2.4v-1c0-1.7-1.3-3-3-3h-1v-5.9l1.3-4.7
	c0.5-1.6-0.5-3.3-2.1-3.7c-0.1,0-0.2-0.1-0.4-0.1L32,2L21.1,3.7c-1.6,0.3-2.8,1.8-2.5,3.4c0,0.1,0,0.2,0.1,0.4l1.3,4.7V18h-1
	c-1.7,0-3,1.3-3,3v1c0,0.9,0.4,1.8,1.2,2.4l3.1,2.3c0.5,2,1.4,3.9,2.7,5.4v3.1l-10.2,3.4c-2.9,1-4.8,3.6-4.8,6.6V62h48V45.3
	C56,42.3,54.1,39.6,51.2,38.7z M25,34.1c0.1,0.1,0.2,0.2,0.4,0.3l0.8,0.6c1.4,1,3.1,1.7,4.9,1.9v4.6l-6-3V34.1z M33,36.8
	c1.8-0.2,3.4-0.8,4.9-1.9l0.8-0.6c0.1-0.1,0.2-0.2,0.4-0.3v4.3l-6,3L33,36.8z M42,13v2H22v-2H42z M41,17c-4.4,5-12.1,5.4-17,0.9
	c-0.3-0.3-0.6-0.6-0.9-0.9H41z M45,20c0.6,0,1,0.4,1,1v1c0,0.3-0.1,0.6-0.4,0.8L44,24c0,0,0-0.1,0-0.1V20H45z M20.7,6.1
	c0.2-0.2,0.4-0.4,0.7-0.4L32,4l10.6,1.6c0.5,0.1,0.9,0.6,0.8,1.1c0,0,0,0.1,0,0.1L42.2,11H21.8l-1.2-4.1C20.5,6.6,20.5,6.3,20.7,6.1
	z M18.4,22.8C18.1,22.6,18,22.3,18,22v-1c0-0.6,0.4-1,1-1h1v3.9c0,0,0,0.1,0,0.1L18.4,22.8z M22,18.8c5.4,5.5,14.3,5.6,19.8,0.2
	c0.1-0.1,0.1-0.1,0.2-0.2v5.1c0,3.5-1.7,6.8-4.5,8.9l-0.8,0.6c-2.8,2-6.6,2-9.4,0l-0.8-0.6c-2.8-2.1-4.5-5.4-4.5-8.9V18.8z M10,45.3
	c0-2.2,1.4-4.1,3.4-4.7l9.6-3.2v2.2l7,3.5l-2,1.3V60h-8v-9h-2v9h-8V45.3z M54,60h-8v-9h-2v9H30V45.5l2.5-1.7l8.5-4.2v-2.2l9.6,3.2
	c2,0.7,3.4,2.6,3.4,4.7V60z"></path><rect width="2" height="2" x="32" y="52"></rect><rect width="2" height="2" x="32" y="56"></rect><rect width="2" height="2" x="32" y="48"></rect><rect width="8" height="2" x="36" y="47"></rect></svg>