<svg xmlns="http://www.w3.org/2000/svg" width="24" height="24" id="door"><path d="M18.2 23.4H5.9c-.2 0-.4-.2-.4-.5V2.2c0-.3.2-.5.4-.5h12.3c.3 0 .5.2.5.5V23c0 .2-.2.4-.5.4zm-11.9-.9h11.4V2.6H6.3v19.9z"></path><path d="M16.5 21.3h-9c-.2 0-.4-.2-.4-.4V4.2c0-.2.2-.4.4-.4h9c.3 0 .5.2.5.4v16.7c0 .2-.2.4-.5.4zM8 20.4h8.1V4.6H8v15.8z"></path><path d="M7.6 21.3c-.1 0-.2 0-.2-.1-.1-.1-.2-.2-.2-.4V4.2c0-.1.1-.3.2-.4.1-.1.3-.1.4 0L15 6.5c.2.1.3.2.3.4v10.9c0 .2-.1.3-.3.4l-7.2 3.1h-.2zM8 4.8v15.4l6.3-2.7V7.2L8 4.8z"></path><path d="M12.2 13.1c-.5 0-.8-.5-.8-1 0-.6.4-1 .8-1l.9.1c.4 0 .7.3.7.9 0 .6-.4.9-.8.9l-.8.1c.1 0 .1 0 0 0z"></path></svg>