<svg xmlns="http://www.w3.org/2000/svg" viewBox="0 0 64 64" id="dryer"><path d="M12.91,58H51.09A2.92,2.92,0,0,0,54,55.09V8.91A2.92,2.92,0,0,0,51.09,6H12.91A2.92,2.92,0,0,0,10,8.91V55.09A2.92,2.92,0,0,0,12.91,58ZM12,8.91A.91.91,0,0,1,12.91,8H51.09a.91.91,0,0,1,.91.91V14H12ZM12,16H52V55.09a.91.91,0,0,1-.91.91H12.91a.91.91,0,0,1-.91-.91Z"></path><path d="M19 10H15a1 1 0 0 0 0 2h4a1 1 0 0 0 0-2zM27 10H23a1 1 0 0 0 0 2h4a1 1 0 0 0 0-2zM49 10H45a1 1 0 0 0 0 2h4a1 1 0 0 0 0-2zM30 29a1 1 0 0 0-1 1v2.5a.5.5 0 0 1-.5.5A2.5 2.5 0 0 0 26 35.5V38a1 1 0 0 0 2 0V35.5a.5.5 0 0 1 .5-.5A2.5 2.5 0 0 0 31 32.5V30A1 1 0 0 0 30 29zM37 29a1 1 0 0 0-1 1v2.5a.5.5 0 0 1-.5.5A2.5 2.5 0 0 0 33 35.5V38a1 1 0 0 0 2 0V35.5a.5.5 0 0 1 .5-.5A2.5 2.5 0 0 0 38 32.5V30A1 1 0 0 0 37 29zM27 40a1 1 0 0 0-1 1v1a1 1 0 0 0 2 0V41A1 1 0 0 0 27 40zM34 40a1 1 0 0 0-1 1v1a1 1 0 0 0 2 0V41A1 1 0 0 0 34 40z"></path><path d="M18.86,51H45.14A2.86,2.86,0,0,0,48,48.14V39a2.23,2.23,0,0,0,2-2.21V35.23A2.23,2.23,0,0,0,48,33V23.86A2.86,2.86,0,0,0,45.14,21H18.86A2.86,2.86,0,0,0,16,23.86V48.14A2.86,2.86,0,0,0,18.86,51ZM47.77,35a.23.23,0,0,1,.23.23v1.54a.23.23,0,0,1-.23.23H42.23a.23.23,0,0,1-.23-.23V35.23a.23.23,0,0,1,.23-.23ZM42,39v5.16a.87.87,0,0,1-.86.86H22.86a.87.87,0,0,1-.86-.86V27.86a.87.87,0,0,1,.86-.86H41.14a.87.87,0,0,1,.86.86V33a2.23,2.23,0,0,0-2,2.21v1.54A2.23,2.23,0,0,0,42,39ZM18,23.86a.87.87,0,0,1,.86-.86H45.14a.87.87,0,0,1,.86.86V33H44V27.86A2.86,2.86,0,0,0,41.14,25H22.86A2.86,2.86,0,0,0,20,27.86V44.14A2.86,2.86,0,0,0,22.86,47H41.14A2.86,2.86,0,0,0,44,44.14V39h2v9.14a.87.87,0,0,1-.86.86H18.86a.87.87,0,0,1-.86-.86Z"></path></svg>