<svg xmlns="http://www.w3.org/2000/svg" viewBox="0 0 48 48" id="extinguisher"><path d="M43.5.1 28.7 5.3c-.6-2.3-2.7-4-5.1-4-2.6 0-4.8 1.9-5.2 4.3h-4.2c-6.1 0-11 4.9-11 11v23.2c0 .6.4 1 1 1s1-.4 1-1V16.6c0-5 4-9 9-9h4.2c.2 1.1.8 2.1 1.6 2.9-4.9 1.5-8.5 6.1-8.5 11.5v22c0 2.2 1.8 4 4 4h16.2c2.2 0 4-1.8 4-4V22.1c0-5.4-3.6-10-8.5-11.5.7-.8 1.2-1.6 1.5-2.6l14.8 5.2c.6.2 1.3-.2 1.3-.9V1c0-.7-.7-1.2-1.3-.9zm-9.8 22V44c0 1.1-.9 2-2 2H15.5c-1.1 0-2-.9-2-2V22.1C13.5 16.5 18 12 23.6 12s10.1 4.5 10.1 10.1zM20.2 6.6c0-1.8 1.5-3.3 3.3-3.3s3.3 1.5 3.3 3.3-1.4 3.4-3.2 3.4-3.4-1.5-3.4-3.4zm22.6 4.3L30.9 6.6l11.9-4.2v8.5z"></path></svg>