<svg xmlns="http://www.w3.org/2000/svg" enable-background="new 0 0 512 512" viewBox="0 0 512 512" id="family"><circle cx="253.159" cy="53.17" r="38.764" fill="none" stroke="#474747" stroke-linecap="round" stroke-linejoin="round" stroke-miterlimit="10" stroke-width="15"></circle><path fill="none" stroke="#474747" stroke-linecap="round" stroke-linejoin="round" stroke-miterlimit="10" stroke-width="15" d="
			M294.608,498.928l4.956-315.834"></path><line x1="255.312" x2="255.312" y1="296.773" y2="498.928" fill="none" stroke="#474747" stroke-linecap="round" stroke-linejoin="round" stroke-miterlimit="10" stroke-width="15"></line><path fill="none" stroke="#474747" stroke-linecap="round" stroke-linejoin="round" stroke-miterlimit="10" stroke-width="15" d="M276.386 109.27l13.538 3.515c17.836 4.631 31.212 19.421 34.034 37.631l43.64 129.202c2.309 8.798-2.702 17.858-11.381 20.578h0c-8.605 2.697-17.821-1.782-21.019-10.214l-35.633-106.889M209.708 183.094l4.705 315.834M232.635 109.27l-13.538 3.515c-17.836 4.631-31.212 19.421-34.034 37.631l-43.64 129.202c-2.309 8.798 2.702 17.858 11.381 20.578h0c8.605 2.697 17.821-1.782 21.019-10.214l35.885-106.889"></path><g><circle cx="439.911" cy="268.404" r="32.575" fill="none" stroke="#474747" stroke-linecap="round" stroke-linejoin="round" stroke-miterlimit="10" stroke-width="15"></circle><path fill="none" stroke="#474747" stroke-linecap="round" stroke-linejoin="round" stroke-miterlimit="10" stroke-width="15" d="M420.892 296.773l-28.617 31.034-15.27-25.699c-3.297-5.333-10.285-7-15.634-3.728l0 0c-5.369 3.284-7.058 10.298-3.773 15.666l22.483 37.732c4.086 6.675 13.178 8.102 19.112 3l17.018-17.357M462.199 292.15l9.94 6.837c5.45 3.749 9.264 9.436 10.663 15.901l17.079 78.927c.988 5.107-1.959 10.156-6.891 11.807l0 0c-5.896 1.973-12.192-1.649-13.449-7.738l-13.356-60.682"></path><line x1="408.4" x2="411.031" y1="346.861" y2="498.928" fill="none" stroke="#474747" stroke-linecap="round" stroke-linejoin="round" stroke-miterlimit="10" stroke-width="15"></line><line x1="474.446" x2="466.183" y1="374.268" y2="498.928" fill="none" stroke="#474747" stroke-linecap="round" stroke-linejoin="round" stroke-miterlimit="10" stroke-width="15"></line><line x1="439.911" x2="439.911" y1="430.827" y2="498.928" fill="none" stroke="#474747" stroke-linecap="round" stroke-linejoin="round" stroke-miterlimit="10" stroke-width="15"></line></g><g><circle cx="70.081" cy="266.404" r="32.575" fill="none" stroke="#474747" stroke-linecap="round" stroke-linejoin="round" stroke-miterlimit="10" stroke-width="15"></circle><path fill="none" stroke="#474747" stroke-linecap="round" stroke-linejoin="round" stroke-miterlimit="10" stroke-width="15" d="M89.099 294.773l28.617 31.034 15.27-25.699c3.297-5.333 10.285-7 15.634-3.728h0c5.369 3.284 7.058 10.298 3.773 15.666l-22.483 37.732c-4.086 6.675-13.178 8.102-19.112 3L93.78 335.42M47.793 290.15l-9.94 6.837c-5.45 3.749-9.264 9.436-10.663 15.901l-17.079 78.927c-.988 5.107 1.959 10.156 6.891 11.807h0c5.896 1.973 12.192-1.649 13.449-7.738l13.356-60.682"></path><line x1="101.592" x2="98.96" y1="344.861" y2="496.928" fill="none" stroke="#474747" stroke-linecap="round" stroke-linejoin="round" stroke-miterlimit="10" stroke-width="15"></line><line x1="35.546" x2="43.808" y1="372.268" y2="496.928" fill="none" stroke="#474747" stroke-linecap="round" stroke-linejoin="round" stroke-miterlimit="10" stroke-width="15"></line><line x1="70.081" x2="70.081" y1="428.827" y2="496.928" fill="none" stroke="#474747" stroke-linecap="round" stroke-linejoin="round" stroke-miterlimit="10" stroke-width="15"></line></g><path fill="none" stroke="#474747" stroke-linecap="round" stroke-linejoin="round" stroke-miterlimit="10" stroke-width="15" d="
		M461.475,242.247c0,0,0.156-11.473,11.011-13.147c12.287-1.895,10.597,10.355,27.584,3.174c0,0-11.707,18.164-28.449,9.972
		C471.621,242.247,464.576,240.583,461.475,242.247z"></path></svg>