<svg xmlns="http://www.w3.org/2000/svg" version="1.2" viewBox="0 0 128 128" id="first-aid"><path fill="none" stroke="#000" stroke-linecap="round" stroke-linejoin="round" stroke-miterlimit="10" stroke-width="4" d="M2 110V26c0-6 6-6 6-6h112c6 0 6 6 6 6v84c0 6-6 6-6 6H8c-6 0-6-6-6-6z"></path><path fill="none" stroke="#000" stroke-linecap="square" stroke-miterlimit="10" stroke-width="4" d="M70 62V46H58v16H42v12h16v16h12V74h16V62zM32 20v-2c0-6-6-6-6-6h-6c-6 0-6 6-6 6v2m100 0v-2c0-6-6-6-6-6h-6c-6 0-6 6-6 6v2"></path><circle cx="64" cy="68" r="35" fill="none" stroke="#000" stroke-linecap="square" stroke-miterlimit="10" stroke-width="4"></circle></svg>