<svg xmlns="http://www.w3.org/2000/svg" viewBox="0 0 80 80" id="Flower"><path d="M21.576 43.674c-.32-.05-.648.052-.878.282a1 1 0 0 0-.273.88c.033.184.832 4.539 3.427 9.16C27.17 59.904 31.93 63.5 37.653 64.45V74.5h2v-3.89c15.502-4.386 19.737-21.807 19.911-22.558a.997.997 0 0 0-.24-.907 1.005 1.005 0 0 0-.888-.308c-10.961 1.72-16.299 9.033-18.783 14.39V41.11c.147-.012.283-.008.432-.023a14.924 14.924 0 0 0 10.017-5.326c.17-.205.344-.42.521-.646 3.028-3.875 4.196-12.448 4.242-12.797.034-.231.818-5.74-1.034-12.663-.332-1.243-1.103-2.096-2.231-2.47-1.766-.581-4.351.17-7.014 1.427-1.42-2.108-3.382-3.25-4.502-3.765a3.865 3.865 0 0 0-3.122-.035c-2.149.918-3.384 2.494-3.999 3.515-2.005-.97-3.835-1.428-5.461-1.358-1.398.063-2.577.691-3.411 1.815-3.339 4.5-.693 16.444.255 20.2.03.198.08.395.146.59.693 2.005 2.746 6.974 6.86 9.791 1.682 1.152 3.798 1.756 6.301 1.816v13.814c-2.354-4.11-7.15-9.812-16.077-11.321zm1.17 2.277c11.275 2.68 14.54 12.622 14.907 13.871v2.6c-10.032-1.88-13.834-12.527-14.908-16.47zm34.43 3.156c-1.355 4.185-6.103 15.827-17.523 19.396v-1.124c.228-1.262 3.04-15.09 17.524-18.272zM37.749 6.65a1.865 1.865 0 0 1 1.502.015c.883.405 2.4 1.283 3.536 2.861a56.01 56.01 0 0 0-4.179 2.536c-1.353-1.103-2.652-2.03-3.89-2.774.469-.763 1.407-1.943 3.031-2.638zm-12.05 3.327c.483-.653 1.085-.973 1.895-1.01 2.486-.098 5.594 1.338 9.293 4.273a72.834 72.834 0 0 0-3.166 2.356l-.01.007c-4.435 3.604-6.89 7.168-8.18 9.553-1.21-6.012-1.724-12.63.167-15.18zm.716 19.032-.047-.185a1.321 1.321 0 0 1 .032-.84c.68-1.713 2.876-6.199 8.569-10.826 4.597-3.65 13.009-9.062 16.005-8.073.324.107.723.328.926 1.087 1.739 6.502.996 11.802.986 11.868-.011.084-1.14 8.393-3.837 11.842a27.34 27.34 0 0 1-.484.6 12.933 12.933 0 0 1-8.682 4.615c-2.136.22-5.155.156-7.4-1.382-3.568-2.444-5.415-6.84-6.068-8.706z" fill="#000000" class="color000000 svgShape"></path></svg>