<svg xmlns="http://www.w3.org/2000/svg" width="24" height="24" id="hairdryer"><path d="M5.113 15.35a1.488 1.488 0 0 0 .926 1.534A3.491 3.491 0 0 0 13 16.5a1.5 1.5 0 0 1 3 0v4a.5.5 0 0 0 1 0v-4a2.5 2.5 0 0 0-5 0 2.5 2.5 0 0 1-4.949.5h.831a1.492 1.492 0 0 0 1.342-.829l2.127-4.255 4.41-.778A1.5 1.5 0 0 0 17 9.661V7.339a1.5 1.5 0 0 0-1.239-1.477L8 4.5a3.983 3.983 0 0 0-2.511 7.088Zm3.216.374a.5.5 0 0 1-.447.276H6.605a.5.5 0 0 1-.5-.55l.327-3.27A3.985 3.985 0 0 0 8 12.5c.067 0-.194.039 2.125-.367ZM5 8.5a3 3 0 0 1 2.913-3.008l7.674 1.354a.5.5 0 0 1 .413.493v2.322a.5.5 0 0 1-.413.493L7.958 11.5A3 3 0 0 1 5 8.5Zm16-2a.5.5 0 0 1-.5.5h-.441a.4.4 0 0 0-.362.224A1.4 1.4 0 0 1 18.441 8H18a.5.5 0 0 1 0-1h.441a.4.4 0 0 0 .362-.224A1.4 1.4 0 0 1 20.059 6h.441a.5.5 0 0 1 .5.5Zm0 2a.5.5 0 0 1-.5.5h-.441a.4.4 0 0 0-.362.224 1.4 1.4 0 0 1-1.256.776H18a.5.5 0 0 1 0-1h.441a.4.4 0 0 0 .362-.224A1.4 1.4 0 0 1 20.059 8h.441a.5.5 0 0 1 .5.5ZM8.25 10.25A1.75 1.75 0 1 0 6.5 8.5a1.752 1.752 0 0 0 1.75 1.75Zm0-2.5a.75.75 0 1 1-.75.75.751.751 0 0 1 .75-.75Z"></path></svg>