<svg id="SvgjsSvg1145" width="288" height="288" xmlns="http://www.w3.org/2000/svg" version="1.1" xmlns:xlink="http://www.w3.org/1999/xlink" xmlns:svgjs="http://svgjs.com/svgjs"><defs id="SvgjsDefs1146"></defs><g id="SvgjsG1147"><svg xmlns="http://www.w3.org/2000/svg" viewBox="0 0 16 16" width="288" height="288"><path fill="#0c0c0c" d="M5.032 2.5C2.918 2.5 1.5 4.213 1.5 6.326c0 2.398 3.35 5.26 6.22 7.174 2.87-1.913 6.181-4.822 6.22-7.174.035-2.113-1.333-3.826-3.447-3.826-.902 0-1.816.478-2.773 1.435C6.763 2.978 5.934 2.5 5.032 2.5z" class="colorc2e4f8 svgShape"></path><path fill="none" stroke="#ffffff" d="M5.032 2.5C2.918 2.5 1.5 4.213 1.5 6.326c0 2.398 3.35 5.26 6.22 7.174 2.87-1.913 6.181-4.822 6.22-7.174.035-2.113-1.333-3.826-3.447-3.826-.902 0-1.816.478-2.773 1.435C6.763 2.978 5.934 2.5 5.032 2.5z" class="colorStroke249fe6 svgStroke"></path></svg></g></svg>