<svg xmlns="http://www.w3.org/2000/svg" viewBox="0 0 69 69" id="hygiene-kit"><path d="M66.72 65.672h-.522l-4.631-44.537c-.01-.101-2.915-8.481-2.95-8.582l-.458-7.057a1 1 0 0 0-.998-.935h-4.955a1 1 0 0 0-.998.936l-.447 7.06c-1.032 3.103-2.826 8.408-2.844 8.58l-3.965 38.721c-.001.005-.004.008-.004.013l-.595 5.8h-1.97c.396-.613.62-1.346.604-2.129l-.613-30.41c-.074-3.635-2.007-5.458-3.655-8.682a11.494 11.494 0 0 1-1.536-5.507l-.078-3.868 6.375-.129a1.002 1.002 0 0 0 .98-1.02l-.234-11.618a1.007 1.007 0 0 0-1.02-.98l-7.375.149-3.912.078a2.698 2.698 0 0 0-2.637 2.747l.327 16.236a13.5 13.5 0 0 0 1.804 6.467l2.384 4.127a7.507 7.507 0 0 1 1.003 3.596l.584 28.968c.015.73.244 1.403.614 1.976h-3.406V39.558c0-4.251-3.458-7.71-7.71-7.71h-.867v-6.38h1.567a1 1 0 0 0 1-1v-4.396a2.399 2.399 0 0 0-2.396-2.396h-8.793a2.399 2.399 0 0 0-2.396 2.396v.5H8.876a5.706 5.706 0 0 0-5.699 5.7v1.092a1 1 0 1 0 2 0v-1.093c0-2.04 1.66-3.699 3.699-3.699h3.121v1.897a1 1 0 0 0 1 1h1.567v6.379h-.962c-4.246 0-7.7 3.459-7.7 7.71v26.114H2.28a1 1 0 1 0 0 2h64.44a1 1 0 1 0 0-2zM41.44 12.967l-5.375.108-.194-9.619 5.375-.108.194 9.619zm-9.295 13.038a11.494 11.494 0 0 1-1.536-5.507l-.327-16.236a.694.694 0 0 1 .678-.707l2.91-.059.215 10.62.098 4.868c.046 2.268.67 4.504 1.804 6.466 1.774 3.41 3.328 4.786 3.387 7.723l.613 30.41a1.804 1.804 0 0 1-1.765 1.838c-1.025-.001-1.818-.773-1.838-1.766L35.8 34.687c-.074-3.636-2.008-5.46-3.655-8.682zm-18.148-5.933c0-.218.178-.396.396-.396h8.793c.218 0 .396.178.396.396v3.397h-9.585v-3.397zm2.567 5.397h4.45v6.379h-4.45v-6.38zM7.902 39.558c0-3.149 2.557-5.71 5.7-5.71h10.28a5.716 5.716 0 0 1 5.71 5.71v25.82H7.902v-25.82zM64.18 65.625l-18.81.01.478-4.662 17.848-.011.484 4.663zM50.304 20.238l2.17-6.495h4.432l2.176 6.492-8.778.003zm5.92-13.677.335 5.174-3.742.003.327-5.177h3.08zm-6.41 15.68 9.857-.003 3.819 36.724-17.437.01 3.762-36.731z"></path></svg>