<svg xmlns="http://www.w3.org/2000/svg" viewBox="0 0 64 64" id="Kitchenutensil"><path d="M10 47h2v11h-2zM14 49h2v9h-2zM6 49h2v9H6z" fill="#000000" class="color000000 svgShape"></path><path d="M57 2H7C4.243 2 2 4.243 2 7v3a1 1 0 0 0 1 1h4v20c0 .883.391 1.67 1 2.22V42H7c-2.757 0-5 2.243-5 5v12c0 1.654 1.346 3 3 3h12c1.654 0 3-1.346 3-3V47c0-2.757-2.243-5-5-5h-1v-8.78c.609-.549 1-1.337 1-2.22V11h12v20c0 .883.391 1.67 1 2.22v7.296c-3.602 1.283-6 4.877-6 9.484 0 5.676 3.696 12 9 12s9-6.324 9-12c0-4.607-2.398-8.202-6-9.484V33.22c.609-.549 1-1.337 1-2.22V11h13v20c0 .883.391 1.67 1 2.22v11.195c-4.053 1.15-7 4.563-7 8.585 0 4.962 4.486 9 10 9s10-4.038 10-9c0-4.022-2.947-7.435-7-8.585V33.22c.609-.549 1-1.337 1-2.22V11h5a1 1 0 0 0 1-1V7c0-2.757-2.243-5-5-5zM13 31a.992.992 0 0 1-.681.935A.975.975 0 0 1 12 32h-2a.975.975 0 0 1-.319-.065A.992.992 0 0 1 9 31v-1h4v1zm0-15H9v-2h4v2zM9 28V18h4v10H9zm4-16H9v-2c0-1.103.897-2 2-2s2 .897 2 2v2zm5 35v12c0 .551-.449 1-1 1H5c-.551 0-1-.449-1-1V47c0-1.654 1.346-3 3-3h8c1.654 0 3 1.346 3 3zm-6-5h-2v-8h2v8zm21-11a.992.992 0 0 1-.681.935A.975.975 0 0 1 32 32h-2a.975.975 0 0 1-.319-.065A.992.992 0 0 1 29 31v-1h4v1zm0-15h-4v-2h4v2zm-4 12V18h4v10h-4zm4-16h-4v-2c0-1.103.897-2 2-2s2 .897 2 2v2zm5 38c0 5.233-3.336 10-7 10s-7-4.767-7-10c0-3.997 2.076-6.962 5.222-7.771.009-.002.018.002.027-.001a6.856 6.856 0 0 1 3.501 0c.016.004.032.003.048.006C35.932 43.051 38 46.012 38 50zm-6-9.945c-.327-.035-.66-.055-1-.055s-.673.02-1 .055V34h2v6.055zM54 31a.992.992 0 0 1-.681.935A.975.975 0 0 1 53 32h-2a.975.975 0 0 1-.319-.065A.992.992 0 0 1 50 31v-1h4v1zm0-15h-4v-2h4v2zm-4 12V18h4v10h-4zm4-16h-4v-2c0-1.103.897-2 2-2s2 .897 2 2v2zm6 41c0 3.86-3.589 7-8 7s-8-3.14-8-7c0-3.318 2.654-6.098 6.201-6.815a8.898 8.898 0 0 1 3.598 0C57.346 46.902 60 49.682 60 53zm-7-8.954a11 11 0 0 0-2 0V34h2v10.046zM60 9h-4.126c-.036-.14-.091-.271-.141-.404-.023-.06-.038-.123-.063-.181a3.952 3.952 0 0 0-.343-.63c-.029-.043-.065-.08-.095-.122a4.21 4.21 0 0 0-.356-.432c-.058-.06-.122-.114-.184-.17a4.253 4.253 0 0 0-.359-.297 3.977 3.977 0 0 0-.628-.369c-.082-.039-.163-.078-.248-.111a3.948 3.948 0 0 0-.474-.147c-.077-.02-.152-.045-.231-.06C52.506 6.029 52.257 6 52 6s-.506.029-.75.076c-.079.015-.153.041-.231.06-.162.041-.32.087-.474.147-.085.033-.166.072-.248.111a3.977 3.977 0 0 0-.628.369 3.65 3.65 0 0 0-.359.297c-.062.057-.126.11-.184.17-.13.135-.246.28-.356.432-.03.042-.067.079-.095.122a3.952 3.952 0 0 0-.343.63c-.025.059-.041.121-.063.181-.052.134-.106.265-.143.405H34.874c-.036-.14-.091-.271-.141-.404-.023-.06-.038-.123-.063-.181a3.952 3.952 0 0 0-.343-.63c-.029-.043-.065-.08-.095-.122a4.21 4.21 0 0 0-.356-.432c-.058-.06-.122-.114-.184-.17a4.253 4.253 0 0 0-.359-.297 3.977 3.977 0 0 0-.628-.369c-.082-.039-.163-.078-.248-.111a3.948 3.948 0 0 0-.474-.147c-.077-.02-.152-.045-.231-.06C31.506 6.029 31.257 6 31 6s-.506.029-.75.076c-.079.015-.153.041-.231.06-.162.041-.32.087-.474.147-.085.033-.166.072-.248.111a3.977 3.977 0 0 0-.628.369 3.65 3.65 0 0 0-.359.297c-.062.057-.126.11-.184.17-.13.135-.246.28-.356.432-.03.042-.067.079-.095.122a3.952 3.952 0 0 0-.343.63c-.025.059-.041.121-.063.181-.052.134-.106.265-.143.405H14.874c-.036-.14-.091-.271-.141-.404-.023-.06-.038-.123-.063-.181a3.952 3.952 0 0 0-.343-.63c-.029-.043-.065-.08-.095-.122a4.21 4.21 0 0 0-.356-.432c-.058-.06-.122-.114-.184-.17a4.253 4.253 0 0 0-.359-.297 3.977 3.977 0 0 0-.628-.369c-.082-.039-.163-.078-.248-.111a3.948 3.948 0 0 0-.474-.147c-.077-.02-.152-.045-.231-.06C11.506 6.029 11.257 6 11 6s-.506.029-.75.076c-.079.015-.153.041-.231.06-.162.041-.32.087-.474.147-.084.034-.165.073-.247.112a3.801 3.801 0 0 0-.988.665c-.062.057-.126.11-.185.17-.13.135-.246.28-.356.432-.03.042-.067.079-.095.122a3.952 3.952 0 0 0-.343.63c-.025.059-.041.122-.063.182-.051.133-.105.264-.142.404H4V7c0-1.654 1.346-3 3-3h50c1.654 0 3 1.346 3 3v2z" fill="#000000" class="color000000 svgShape"></path><path d="M31 44v2c1.654 0 3 1.346 3 3h2c0-2.757-2.243-5-5-5zM56 52h2c0-2.206-1.794-4-4-4v2c1.103 0 2 .897 2 2z" fill="#000000" class="color000000 svgShape"></path></svg>