<svg width="565" height="565" viewBox="0 0 565 565" fill="none" xmlns="http://www.w3.org/2000/svg">
<circle cx="282.5" cy="282.5" r="282.5" fill="#FF385C" fill-opacity="0.2"/>
<circle cx="282.5" cy="282.5" r="127.5" fill="#FF385C"/>
<path d="M345.815 274.769C345.198 276.535 344.047 278.064 342.521 279.146C340.995 280.228 339.171 280.808 337.301 280.806H332.795V336.49C332.701 338.936 331.654 341.248 329.878 342.932C328.101 344.616 325.737 345.538 323.289 345.501H303.016C300.553 345.562 298.165 344.651 296.369 342.964C294.573 341.278 293.514 338.952 293.42 336.49V313.964H272.065V336.49C271.971 338.952 270.911 341.278 269.115 342.964C267.319 344.651 264.932 345.562 262.469 345.501H242.195C239.733 345.562 237.345 344.651 235.549 342.964C233.753 341.278 232.693 338.952 232.599 336.49V280.806H228.094C226.221 280.823 224.389 280.257 222.853 279.184C221.317 278.112 220.153 276.588 219.524 274.823C218.894 273.059 218.831 271.143 219.341 269.34C219.852 267.538 220.911 265.94 222.372 264.767L277.111 220.977C278.709 219.697 280.695 219 282.742 219C284.79 219 286.776 219.697 288.374 220.977L343.112 264.767C344.537 265.954 345.561 267.551 346.045 269.341C346.529 271.131 346.449 273.026 345.815 274.769Z" fill="white"/>
</svg>
