<svg xmlns="http://www.w3.org/2000/svg" width="24" height="24" fill="none" viewBox="0 0 24 24" id="medal"><path fill="#000" fill-rule="evenodd" d="M15.9573 19.1924C16.8848 18.1343 17.3667 16.8046 17.3667 15.7222C17.3667 13.3559 15.8022 11.9593 14.2322 10.9224L12 9.56412L9.76776 10.9224C8.19781 11.9593 6.63333 13.3559 6.63333 15.7222C6.63333 16.8046 7.11515 18.1343 8.04266 19.1924C8.9608 20.2398 10.2961 21 12 21C13.7039 21 15.0392 20.2398 15.9573 19.1924ZM11.0381 8.97884L9.2401 10.0729C9.23489 10.076 9.22974 10.0793 9.22466 10.0826C7.59715 11.1563 5.63333 12.8146 5.63333 15.7222C5.63333 17.0688 6.21818 18.6281 7.29067 19.8516C8.37253 21.0858 9.97059 22 12 22C14.0294 22 15.6275 21.0858 16.7093 19.8516C17.7818 18.6281 18.3667 17.0688 18.3667 15.7222C18.3667 12.8146 16.4028 11.1563 14.7753 10.0826C14.7703 10.0793 14.7651 10.076 14.7599 10.0729L12.9619 8.97884L18.6727 5.50401C19.7569 4.84429 19.9332 3.3416 19.0311 2.44887C18.3901 1.81458 17.3981 1.70188 16.6312 2.17621L13.337 4.21365C13.1021 4.35891 13.0295 4.66704 13.1748 4.9019C13.32 5.13675 13.6282 5.20938 13.863 5.06413L17.1572 3.02668C17.5313 2.79535 18.0151 2.85031 18.3277 3.15967C18.7677 3.59507 18.6817 4.32796 18.1529 4.64972L12 8.39355L5.84709 4.64972C5.31828 4.32796 5.23231 3.59507 5.6723 3.15967C5.98491 2.85031 6.46873 2.79535 6.84276 3.02668L10.137 5.06413C10.3718 5.20938 10.68 5.13675 10.8252 4.9019C10.9705 4.66704 10.8979 4.35891 10.663 4.21365L7.36878 2.17621C6.60186 1.70188 5.60986 1.81459 4.9689 2.44887C4.06677 3.3416 4.24305 4.84428 5.32729 5.50401L11.0381 8.97884Z" clip-rule="evenodd"></path></svg>