<svg xmlns="http://www.w3.org/2000/svg" enable-background="new 0 0 49 49" viewBox="0 0 49 49" id="mountain"><path d="M0.53,46.77c0.01,0.06,0.01,0.12,0.03,0.17c0.01,0.07,0.04,0.13,0.06,0.19c0.02,0.06,0.04,0.12,0.06,0.18
	c0.03,0.06,0.06,0.11,0.09,0.17c0.03,0.06,0.06,0.12,0.1,0.17c0.03,0.05,0.07,0.09,0.11,0.13c0.05,0.06,0.09,0.11,0.15,0.17
	c0.01,0.01,0.02,0.02,0.03,0.03c0.03,0.03,0.07,0.05,0.1,0.07c0.06,0.05,0.12,0.09,0.18,0.13c0.05,0.03,0.11,0.06,0.16,0.09
	c0.06,0.03,0.12,0.06,0.19,0.09c0.06,0.02,0.12,0.04,0.18,0.06c0.06,0.02,0.12,0.04,0.19,0.05c0.07,0.01,0.14,0.02,0.21,0.02
	c0.05,0,0.09,0.01,0.13,0.01h44c1.1,0,2-0.9,2-2v-44c0-1.1-0.9-2-2-2h-44c-1.1,0-2,0.9-2,2v44c0,0.02,0,0.03,0,0.05
	C0.51,46.62,0.52,46.7,0.53,46.77z M32.76,44.5H6.36c3.43-5.01,9.57-14.29,12.76-19.13L32.76,44.5z M37.67,44.5l-7.01-9.84
	l6.55-8.24l7.29,10.41v7.68H37.67z M44.5,4.5v25.35l-5.55-7.92c-0.36-0.52-0.95-0.83-1.58-0.85c-0.63-0.05-1.23,0.26-1.63,0.75
	l-7.51,9.44l-7.55-10.6c-0.38-0.54-1-0.83-1.67-0.84c-0.66,0.01-1.27,0.35-1.63,0.9c-3.84,5.84-9.32,14.12-12.89,19.4V4.5H44.5z"></path><path d="M28.25,20.18c3.27,0,5.93-2.66,5.93-5.93s-2.66-5.93-5.93-5.93c-3.27,0-5.93,2.66-5.93,5.93S24.98,20.18,28.25,20.18z
	 M28.25,12.31c1.07,0,1.93,0.87,1.93,1.93c0,1.07-0.87,1.93-1.93,1.93c-1.07,0-1.93-0.87-1.93-1.93
	C26.32,13.18,27.18,12.31,28.25,12.31z"></path></svg>