<svg xmlns="http://www.w3.org/2000/svg" viewBox="0 0 690.011 510.51" id="pool"><path fill="#1d1d1b" d="M668.504 467.497c-19.417 0-28.249-7.046-40.477-16.807-14.628-11.672-32.827-26.206-67.303-26.206s-52.685 14.534-67.314 26.206c-12.229 9.761-21.066 16.807-40.488 16.807-19.438 0-28.275-7.052-40.514-16.813-6.443-5.135-13.686-10.774-22.599-15.537V203.131h278.695c11.877 0 21.507-9.624 21.507-21.507 0-11.877-9.63-21.507-21.507-21.507h-89.692V56.606c0-22.966-13.709-43.481-34.927-52.27S498.472.361 482.232 16.602L368.665 130.168a74.273 74.273 0 0 0-18.28 29.95h-44.959V56.606c0-22.966-13.709-43.481-34.927-52.27-21.202-8.784-45.413-3.98-61.659 12.266L95.273 130.168a74.273 74.273 0 0 0-18.28 29.95H21.507C9.63 160.118 0 169.747 0 181.624c0 11.882 9.63 21.507 21.507 21.507h51.898v238.895c-4.103 2.888-7.847 5.854-11.362 8.658-12.239 9.761-21.087 16.813-40.535 16.813C9.63 467.497 0 477.126 0 489.003c0 11.882 9.63 21.507 21.507 21.507 34.497 0 52.717-14.523 67.356-26.196 12.239-9.761 21.087-16.818 40.53-16.818s28.291 7.057 40.53 16.818c14.639 11.672 32.853 26.196 67.35 26.196 34.481 0 52.69-14.523 67.319-26.201 12.229-9.756 21.066-16.813 40.488-16.813 19.433 0 28.27 7.057 40.509 16.813 14.634 11.677 32.843 26.201 67.335 26.201 34.481 0 52.69-14.529 67.319-26.201 12.229-9.761 21.066-16.813 40.483-16.813 19.412 0 28.243 7.052 40.472 16.813 14.628 11.672 32.832 26.201 67.308 26.201 11.877 0 21.507-9.624 21.507-21.507-.002-11.877-9.632-21.506-21.509-21.506zM116.418 296.913h230.378v48.758H116.418v-48.758zm396.225-249.9c5.792-5.786 12.266-3.98 14.781-2.94 2.52 1.04 8.375 4.353 8.375 12.533v103.512h-136.26L512.643 47.013zm-273.391 0c5.781-5.781 12.271-3.985 14.786-2.94 2.52 1.045 8.375 4.353 8.375 12.533v103.512H126.147L239.252 47.013zm107.544 156.118V253.9H116.418v-50.769h230.378zM277.76 450.689c-12.229 9.761-21.066 16.807-40.488 16.807-19.443 0-28.291-7.052-40.53-16.813-14.639-11.672-32.853-26.201-67.35-26.201-4.621 0-8.905.299-12.974.777v-36.576h230.378v35.894c-.599-.01-1.111-.095-1.717-.095-34.481.001-52.69 14.535-67.319 26.207z"></path></svg>