<svg id="SvgjsSvg1059" width="288" height="288" xmlns="http://www.w3.org/2000/svg" version="1.1" xmlns:xlink="http://www.w3.org/1999/xlink" xmlns:svgjs="http://svgjs.com/svgjs"><defs id="SvgjsDefs1060"></defs><g id="SvgjsG1061"><svg xmlns="http://www.w3.org/2000/svg" viewBox="0 0 60 60" width="288" height="288"><path d="M38.69 27.06c0-4.79-3.9-8.68-8.69-8.68s-8.69 3.89-8.69 8.68c0 4.79 3.9 8.69 8.69 8.69s8.69-3.9 8.69-8.69z" fill="#716f6f" class="color000 svgShape"></path><path d="M30 5C16.21 5 5 16.21 5 30c0 6.37 2.396 12.188 6.33 16.606a21.44 21.44 0 0 1 13.475-10.211c-3.272-1.83-5.492-5.324-5.492-9.333 0-5.893 4.794-10.687 10.687-10.687s10.688 4.794 10.688 10.688c0 4.008-2.22 7.503-5.493 9.332A21.44 21.44 0 0 1 48.67 46.606C52.604 42.187 55 36.371 55 30 55 16.21 43.79 5 30 5z" fill="#716f6f" class="color000 svgShape"></path><path d="M12.78 48.1C17.27 52.37 23.33 55 30 55s12.73-2.63 17.22-6.9c-3.4-6.39-9.99-10.35-17.22-10.35S16.18 41.71 12.78 48.1z" fill="#716f6f" class="color000 svgShape"></path></svg></g></svg>