<svg xmlns="http://www.w3.org/2000/svg" viewBox="0 0 64 64" id="shampoo"><path d="M41.15.5H28.73c-1.24 0-2.37.78-2.81 1.93-7.37 19.46-8.04 39.29-1.98 58.95a3.02 3.02 0 0 0 2.87 2.11h14.34c1.65 0 3-1.35 3-3v-57a3 3 0 0 0-3-2.99zm-3.78 1.97v1.97H32.7V2.47h4.67zm-9.61.66c.15-.4.54-.66.97-.66h2v1.97c0 1.09.88 1.97 1.97 1.97h4.66c1.09 0 1.97-.88 1.97-1.97V2.47h1.82c.57 0 1.03.46 1.03 1.03v3.09c-2.65.51-5.3 1.18-7.89 2.02a64.576 64.576 0 0 0-9.55 3.97c.84-3.15 1.83-6.31 3.02-9.45zm13.39 58.4H26.81c-.45 0-.86-.3-.99-.72-4.68-15.2-5.24-30.51-1.71-45.67 3.37-1.85 6.99-3.42 10.79-4.65 2.39-.78 4.83-1.4 7.28-1.89v33.37h-15.9c-.32 0-.61.15-.8.41a.98.98 0 0 0-.14.89l1.97 5.94c.13.4.51.67.93.67h13.93V60.5c.01.57-.45 1.03-1.02 1.03zm1.03-13.62H28.96l-1.32-3.97h14.54v3.97z"></path><path d="M32 37.12c4.64 0 8.42-3.78 8.42-8.43 0-4.64-3.78-8.42-8.42-8.42-4.65 0-8.43 3.78-8.43 8.42.01 4.65 3.79 8.43 8.43 8.43zm0-14.88c3.56 0 6.46 2.9 6.46 6.46s-2.9 6.46-6.46 6.46a6.47 6.47 0 0 1-6.46-6.46c0-3.56 2.9-6.46 6.46-6.46z"></path><path d="M32 33.96c2.21 0 4.01-1.8 4.01-4.01 0-1.92-2.7-5.44-3.24-6.13-.37-.47-1.17-.47-1.55 0-.54.69-3.24 4.21-3.24 6.13.01 2.2 1.81 4.01 4.02 4.01zm0-7.89c1.09 1.53 2.05 3.21 2.05 3.87 0 1.13-.92 2.05-2.05 2.05s-2.05-.92-2.05-2.05c.01-.66.97-2.34 2.05-3.87z"></path></svg>