<svg xmlns="http://www.w3.org/2000/svg" viewBox="0 0 64 64" id="smoke-detector"><path fill="none" stroke="#000" stroke-linejoin="round" stroke-width="2" d="M30 8.535a4 4 0 1 0 4 0M32 6v6"></path><path fill="none" stroke="#000" stroke-linejoin="round" stroke-width="2" d="M8 4h48v12a4 4 0 0 1-4 4H12a4 4 0 0 1-4-4V4zm4 16 5.027 13.4a4 4 0 0 0 3.745 2.6h22.456a4 4 0 0 0 3.745-2.6L52 20zM24 36h16v6H24zM16 24h8M28 24h8M40 24h8M22 28h8M34 28h8M16 32h8M28 32h8M40 32h8M32 46l-.388.777A6.21 6.21 0 0 0 32 53a6.21 6.21 0 0 1 .387 6.222L32 60m6.956-14-.388.777A6.21 6.21 0 0 0 38.955 53a6.21 6.21 0 0 1 .387 6.222l-.386.778M25.044 46l-.388.777A6.21 6.21 0 0 0 25.043 53a6.21 6.21 0 0 1 .387 6.222l-.386.778"></path></svg>