<svg xmlns="http://www.w3.org/2000/svg" enable-background="new 0 0 3872.983 3872.983" viewBox="0 0 3872.983 3872.983" id="snow-flake"><path d="M1936.492,2355.427c-111.902,0-217.106-43.577-296.233-122.702c-79.127-79.127-122.704-184.331-122.704-296.233
		s43.577-217.106,122.704-296.233s184.331-122.704,296.233-122.704s217.104,43.577,296.233,122.704
		c79.125,79.127,122.702,184.331,122.702,296.233s-43.577,217.104-122.702,296.233
		C2153.596,2311.85,2048.394,2355.427,1936.492,2355.427z M1936.492,1641.492c-162.663,0-294.999,132.336-294.999,294.999
		s132.336,294.999,294.999,294.999s294.999-132.336,294.999-294.999S2099.155,1641.492,1936.492,1641.492z"></path><path d="M1936.492,1641.492c-34.224,0-61.968-27.744-61.968-61.968V290.474c0-34.224,27.744-61.968,61.968-61.968
			c34.224,0,61.968,27.744,61.968,61.968v1289.051C1998.459,1613.748,1970.715,1641.492,1936.492,1641.492z"></path><path d="M1936.492 848.23c-11.197 0-22.394-3.031-32.314-9.092L1547.21 620.992c-29.202-17.847-38.408-55.986-20.564-85.19 17.847-29.204 55.99-38.406 85.19-20.564l324.655 198.399 324.653-198.399c29.202-17.847 67.342-8.643 85.188 20.564 17.846 29.202 8.641 67.343-20.562 85.19l-356.967 218.146C1958.885 845.199 1947.688 848.23 1936.492 848.23zM2188.906 1746.045c-15.86 0-31.716-6.05-43.819-18.151-24.198-24.2-24.198-63.436.002-87.636l911.497-911.495c24.198-24.2 63.434-24.2 87.636 0 24.198 24.2 24.198 63.436-.002 87.636l-911.497 911.495C2220.625 1739.994 2204.762 1746.045 2188.906 1746.045z"></path><path d="M3156.545 1283.299c-4.814 0-9.704-.565-14.592-1.745l-406.669-98.161c-22.599-5.455-40.242-23.098-45.698-45.697l-98.159-406.667c-8.029-33.269 12.428-66.747 45.697-74.778s66.749 12.428 74.778 45.699l89.276 369.854 369.856 89.276c33.269 8.029 53.728 41.509 45.697 74.778C3209.882 1264.241 3184.506 1283.299 3156.545 1283.299zM3582.51 1998.459H2293.458c-34.223 0-61.968-27.744-61.968-61.968 0-34.224 27.744-61.968 61.968-61.968H3582.51c34.224 0 61.968 27.744 61.968 61.968C3644.477 1970.715 3616.733 1998.459 3582.51 1998.459z"></path><path d="M3304.927 2355.436c-20.874 0-41.253-10.548-52.934-29.663l-218.148-356.967c-12.125-19.835-12.125-44.789 0-64.626l218.148-356.967c17.849-29.204 55.988-38.406 85.188-20.564 29.202 17.847 38.408 55.988 20.562 85.19l-198.399 324.653 198.401 324.653c17.847 29.202 8.641 67.342-20.562 85.188C3327.094 2352.498 3315.944 2355.436 3304.927 2355.436zM3100.403 3162.37c-15.858 0-31.718-6.05-43.817-18.149l-911.499-911.499c-24.198-24.198-24.198-63.436 0-87.636 24.202-24.198 63.438-24.198 87.636 0l911.499 911.499c24.198 24.198 24.198 63.436 0 87.636C3132.12 3156.321 3116.26 3162.37 3100.403 3162.37z"></path><path d="M2651.717,3218.478c-4.816,0-9.704-0.565-14.592-1.745c-33.269-8.029-53.726-41.511-45.697-74.778l98.159-406.669
			c5.453-22.599,23.098-40.242,45.698-45.697l406.669-98.159c33.263-8.032,66.747,12.428,74.778,45.697
			c8.031,33.269-12.428,66.749-45.698,74.778l-369.856,89.276l-89.276,369.856
			C2705.054,3199.416,2679.677,3218.474,2651.717,3218.478z"></path><g><path d="M1936.492,3644.477c-34.224,0-61.968-27.744-61.968-61.968V2293.458c0-34.223,27.744-61.968,61.968-61.968
			c34.224,0,61.968,27.744,61.968,61.968V3582.51C1998.459,3616.733,1970.715,3644.477,1936.492,3644.477z"></path><path d="M2293.401,3366.846c-11.017,0-22.165-2.938-32.254-9.101l-324.655-198.401l-324.655,198.401
			c-29.2,17.849-67.342,8.641-85.19-20.562c-17.845-29.202-8.639-67.342,20.564-85.188l356.967-218.148
			c19.838-12.122,44.789-12.122,64.627,0l356.967,218.148c29.202,17.846,38.408,55.986,20.562,85.188
			C2334.652,3356.296,2314.272,3366.846,2293.401,3366.846z"></path></g><g><path d="M772.581,3162.37c-15.858,0-31.718-6.05-43.817-18.149c-24.2-24.2-24.2-63.438,0-87.636l911.495-911.497
			c24.2-24.202,63.436-24.2,87.636-0.002c24.2,24.2,24.2,63.438,0,87.636L816.4,3144.219
			C804.299,3156.321,788.441,3162.37,772.581,3162.37z"></path><path d="M1221.268,3218.478c-27.963,0-53.337-19.061-60.188-47.442l-89.276-369.856l-369.854-89.276
			c-33.269-8.029-53.728-41.51-45.699-74.778c8.031-33.267,41.503-53.728,74.778-45.697l406.667,98.159
			c22.599,5.453,40.242,23.098,45.697,45.698l98.161,406.669c8.031,33.269-12.428,66.749-45.697,74.778
			C1230.974,3217.913,1226.082,3218.478,1221.268,3218.478z"></path></g><g><path d="M1579.525,1998.459H290.474c-34.224,0-61.968-27.744-61.968-61.968c0-34.224,27.744-61.968,61.968-61.968h1289.051
			c34.224,0,61.968,27.744,61.968,61.968C1641.492,1970.715,1613.748,1998.459,1579.525,1998.459z"></path><path d="M568.056,2355.436c-11.017,0-22.167-2.938-32.254-9.102c-29.202-17.846-38.408-55.986-20.564-85.188l198.399-324.655
			l-198.399-324.655c-17.845-29.202-8.639-67.343,20.564-85.19c29.204-17.845,67.343-8.639,85.19,20.564l218.146,356.967
			c12.122,19.838,12.122,44.791,0,64.627l-218.146,356.967C609.309,2344.886,588.93,2355.436,568.056,2355.436z"></path></g><g><path d="M1684.078,1746.045c-15.858,0-31.718-6.05-43.817-18.151L728.764,816.4c-24.2-24.2-24.2-63.436,0-87.636
			c24.2-24.2,63.436-24.2,87.636,0l911.495,911.495c24.2,24.2,24.2,63.436,0,87.636
			C1715.796,1739.996,1699.936,1746.045,1684.078,1746.045z"></path><path d="M716.438,1283.299c-27.963,0-53.335-19.059-60.186-47.442c-8.031-33.269,12.428-66.749,45.697-74.778l369.856-89.276
			l89.276-369.856c8.029-33.269,41.507-53.732,74.778-45.697c33.269,8.029,53.728,41.511,45.697,74.778l-98.161,406.667
			c-5.455,22.597-23.098,40.242-45.697,45.697l-406.667,98.161C726.144,1282.734,721.252,1283.299,716.438,1283.299z"></path></g></svg>