<svg xmlns="http://www.w3.org/2000/svg" viewBox="0 0 100 100" id="sprayer"><path d="M52 10H18c-3.3 0-6 2.7-6 6v12c0 3.3 2.7 6 6 6v5c-3.3 0-6 2.7-6 6v44c0 3.3 2.7 6 6 6h34c3.3 0 6-2.7 6-6V71c0-3.3-2.7-6-6-6h-.5c-.8 0-1.4-.4-1.8-1.1L37.8 40.1c-.3-.7-1-1.1-1.8-1.1h-4v-5.1c1.9-.2 4.1-.8 6.2-1.7 1.8 4.5 6.4 10 15 10 1 0 2-.1 3.1-.2.8-.1 1.5-.8 1.7-1.6.2-.8-.2-1.7-.9-2.1-6.6-3.9-8.3-10.9-8.8-14.3H52c3.3 0 6-2.7 6-6v-2c0-3.3-2.7-6-6-6zm0 81H18c-1.1 0-2-.9-2-2V79h38v10c0 1.1-.9 2-2 2zm-5.9-25.3c1 2 3.1 3.3 5.4 3.3h.5c1.1 0 2 .9 2 2v4H16V45c0-1.1.9-2 2-2h16.8l11.3 22.7zM30 30c-1.1 0-2 .9-2 2v7h-6v-7c0-1.1-.9-2-2-2h-2c-1.1 0-2-.9-2-2V16c0-1.1.9-2 2-2h26v8c0 3.9-9.1 8-14 8zm11.8.4C43 29.7 44 28.9 45 28c.8 3 2.4 6.7 5.3 9.9-5.3-1.1-7.7-5.3-8.5-7.5zM54 18c0 1.1-.9 2-2 2h-4v-6h4c1.1 0 2 .9 2 2v2z"></path><circle cx="66" cy="17" r="2"></circle><circle cx="86" cy="17" r="2"></circle><circle cx="86" cy="7" r="2"></circle><circle cx="86" cy="27" r="2"></circle><circle cx="76" cy="22" r="2"></circle><circle cx="76" cy="12" r="2"></circle></svg>