<svg xmlns="http://www.w3.org/2000/svg" viewBox="0 0 64 64" id="Sunset"><path fill="#000000" d="M45.44 38.17a.91.91 0 0 1-.42-.09 1 1 0 0 1-.49-1.32 13.59 13.59 0 0 0 1.23-5.7 13.76 13.76 0 1 0-27.52 0 13.59 13.59 0 0 0 1.23 5.7 1 1 0 0 1-.47 1.32 1 1 0 0 1-1.33-.49 15.56 15.56 0 0 1-1.41-6.53 15.76 15.76 0 1 1 31.52 0 15.56 15.56 0 0 1-1.41 6.53 1 1 0 0 1-.93.58Z" class="color222222 svgShape"></path><path fill="#000000" d="M57.6 38.17H6.4a1 1 0 1 1 0-2h51.2a1 1 0 1 1 0 2zm-8.66 5.71H15.06a1 1 0 0 1 0-2h33.88a1 1 0 0 1 0 2zm-3.86 5.7H18.92a1 1 0 0 1 0-2h26.16a1 1 0 0 1 0 2zm-6.87 5.7H25.79a1 1 0 1 1 0-2h12.42a1 1 0 1 1 0 2zM32 13.49a1 1 0 0 1-1-1V9.72a1 1 0 1 1 2 0v2.77a1 1 0 0 1-1 1zm13.13 5.44a1 1 0 0 1-.71-.3 1 1 0 0 1 0-1.41l2-2a1 1 0 0 1 1.42 0 1 1 0 0 1 0 1.41l-2 2a1 1 0 0 1-.71.3zm8.21 13.13h-2.77a1 1 0 1 1 0-2h2.77a1 1 0 0 1 0 2zM18.87 18.93a1 1 0 0 1-.71-.3l-2-2a1 1 0 0 1 0-1.41 1 1 0 0 1 1.42 0l2 2a1 1 0 0 1 0 1.41 1 1 0 0 1-.71.3zm-5.44 13.13h-2.77a1 1 0 1 1 0-2h2.77a1 1 0 0 1 0 2z" class="color222222 svgShape"></path></svg>