<svg xmlns="http://www.w3.org/2000/svg" viewBox="0 0 64 64" id="telephone"><path d="M59.5,8.5H4.5A1.5,1.5,0,0,0,3,10V46a1.5,1.5,0,0,0,1.5,1.5h9.06a9,9,0,0,0,17.88,0H59.5A1.5,1.5,0,0,0,61,46V10A1.5,1.5,0,0,0,59.5,8.5Zm-37,44a6,6,0,0,1-5.91-5H28.41A6,6,0,0,1,22.5,52.5Zm35.5-8H16.5v-3H20A1.5,1.5,0,0,0,21.5,40V16A1.5,1.5,0,0,0,20,14.5H10.5A1.5,1.5,0,0,0,9,16V40a1.5,1.5,0,0,0,1.5,1.5h3v3H6v-33H58Zm-46-6v-21h6.5v21Z"></path><path d="M48.5 26.5a5 5 0 1 0-5-5A5 5 0 0 0 48.5 26.5zm0-7a2 2 0 1 1-2 2A2 2 0 0 1 48.5 19.5zM35.5 26.5a5 5 0 1 0-5-5A5 5 0 0 0 35.5 26.5zm0-7a2 2 0 1 1-2 2A2 2 0 0 1 35.5 19.5zM48.5 39.5a5 5 0 1 0-5-5A5 5 0 0 0 48.5 39.5zm0-7a2 2 0 1 1-2 2A2 2 0 0 1 48.5 32.5zM35.5 39.5a5 5 0 1 0-5-5A5 5 0 0 0 35.5 39.5zm0-7a2 2 0 1 1-2 2A2 2 0 0 1 35.5 32.5z"></path></svg>