<svg xmlns="http://www.w3.org/2000/svg" width="32" height="32" aria-labelledby="title" id="wheelchair"><path fill="[Color-Muted]" d="M12.3 5.6c-1.6 0-2.8-1.3-2.8-2.8 0-1.6 1.3-2.8 2.8-2.8 1.6 0 2.8 1.3 2.8 2.8 0 1.6-1.2 2.8-2.8 2.8m13.4 20.8c.5.7 1.5 1 2.3.6.8-.5 1-1.4.6-2.2l-4.8-8.3c-.3-.5-.8-.8-1.4-.8h-7l-.1-2.2h5c.7 0 1.3-.5 1.3-1.2s-.6-1.2-1.3-1.3h-5.1L15 8.6C14.9 7.1 13.6 6 12.1 6c-1.5.1-2.6 1.4-2.6 2.9l.5 8.5c.1 1.5 1.4 2.6 2.9 2.6H22l3.7 6.4zm-11.6 3.4c-4.6 0-8.4-3.7-8.4-8.4 0-2.5 1.1-4.8 2.9-6.3l-.1-2.6c-3 1.9-5 5.2-5 8.9C3.5 27.3 8.2 32 14.1 32c4.3 0 8-2.6 9.6-6.3l-1.5-2.6c-.8 3.8-4.1 6.7-8.1 6.7" class="icons-background"></path></svg>